<svg xmlns="http://www.w3.org/2000/svg" viewBox="0 0 2492.59 1215.61"><defs><style>.cls-1{fill:#fff;}</style></defs><g id="Layer_1" data-name="Layer 1"><path class="cls-1" d="M55,33.5C44.5,37,35,47.6,32.8,58.3,28.5,78.9,49.1,99.5,69.7,95.2c15.5-3.2,27.5-19,26-33.9-1.1-10.5-9-21.3-19-26.2C70.6,32.2,61.2,31.5,55,33.5Z" transform="translate(-32.23 -32.18)"/><path class="cls-1" d="M183,33.5c-15.1,5-25.3,21.6-22.2,36.2,2.5,11.9,13.6,23,25.4,25.5,19.4,4.1,39.5-14.2,37.5-33.9-1.1-10.5-9-21.3-19-26.2C198.6,32.2,189.2,31.5,183,33.5Z" transform="translate(-32.23 -32.18)"/><path class="cls-1" d="M311,33.5c-10.5,3.5-20,14.1-22.2,24.8-4.3,20.6,16.3,41.2,36.9,36.9,15.5-3.2,27.5-19,26-33.9-1.1-10.5-9-21.3-19-26.2C326.6,32.2,317.2,31.5,311,33.5Z" transform="translate(-32.23 -32.18)"/><path class="cls-1" d="M439,33.5c-10.5,3.5-20,14.1-22.2,24.8-4.3,20.6,16.3,41.2,36.9,36.9,15.5-3.2,27.5-19,26-33.9-1.1-10.5-9-21.3-19-26.2C454.6,32.2,445.2,31.5,439,33.5Z" transform="translate(-32.23 -32.18)"/><path class="cls-1" d="M567,33.5c-10.5,3.5-20,14.1-22.2,24.8-4.3,20.6,16.3,41.2,36.9,36.9,15.5-3.2,27.5-19,26-33.9-1.1-10.5-9-21.3-19-26.2C582.6,32.2,573.2,31.5,567,33.5Z" transform="translate(-32.23 -32.18)"/><path class="cls-1" d="M695,33.5c-10.5,3.5-20,14.1-22.2,24.8-4.3,20.6,16.3,41.2,36.9,36.9,15.5-3.2,27.5-19,26-33.9-1.1-10.5-9-21.3-19-26.2C710.6,32.2,701.2,31.5,695,33.5Z" transform="translate(-32.23 -32.18)"/><path class="cls-1" d="M823,33.5c-10.5,3.5-20,14.1-22.2,24.8-4.3,20.6,16.3,41.2,36.9,36.9,15.5-3.2,27.5-19,26-33.9-1.1-10.5-9-21.3-19-26.2C838.6,32.2,829.2,31.5,823,33.5Z" transform="translate(-32.23 -32.18)"/><path class="cls-1" d="M951,33.5c-10.5,3.5-20,14.1-22.2,24.8-4.3,20.6,16.3,41.2,36.9,36.9,15.5-3.2,27.5-19,26-33.9-1.1-10.5-9-21.3-19-26.2C966.6,32.2,957.2,31.5,951,33.5Z" transform="translate(-32.23 -32.18)"/><path class="cls-1" d="M1079,33.5c-10.5,3.5-20,14.1-22.2,24.8-2.5,11.7,3.2,24.4,14.2,31.9,10.7,7.4,22.9,7.5,33.7.3,17.7-11.8,20.1-33.8,5.3-48.5C1101.5,33.4,1089.3,30.1,1079,33.5Z" transform="translate(-32.23 -32.18)"/><path class="cls-1" d="M1207,33.5c-10.5,3.5-20,14.1-22.2,24.8-2.5,11.7,3.2,24.4,14.2,31.9,10.7,7.4,22.9,7.5,33.7.3,17.7-11.8,20.1-33.8,5.3-48.5C1229.5,33.4,1217.3,30.1,1207,33.5Z" transform="translate(-32.23 -32.18)"/><path class="cls-1" d="M55,161.5c-10.5,3.5-20,14.1-22.2,24.8-4.3,20.6,16.3,41.2,36.9,36.9,15.5-3.2,27.5-19,26-33.9-1.1-10.5-9-21.3-19-26.2C70.6,160.2,61.2,159.5,55,161.5Z" transform="translate(-32.23 -32.18)"/><path class="cls-1" d="M183,161.5c-15.1,5-25.3,21.6-22.2,36.2,2.5,11.9,13.6,23,25.4,25.5,19.4,4.1,39.5-14.2,37.5-33.9-1.1-10.5-9-21.3-19-26.2C198.6,160.2,189.2,159.5,183,161.5Z" transform="translate(-32.23 -32.18)"/><path class="cls-1" d="M311,161.5c-10.5,3.5-20,14.1-22.2,24.8-4.3,20.6,16.3,41.2,36.9,36.9,15.5-3.2,27.5-19,26-33.9-1.1-10.5-9-21.3-19-26.2C326.6,160.2,317.2,159.5,311,161.5Z" transform="translate(-32.23 -32.18)"/><path class="cls-1" d="M439,161.5c-10.5,3.5-20,14.1-22.2,24.8-4.3,20.6,16.3,41.2,36.9,36.9,15.5-3.2,27.5-19,26-33.9-1.1-10.5-9-21.3-19-26.2C454.6,160.2,445.2,159.5,439,161.5Z" transform="translate(-32.23 -32.18)"/><path class="cls-1" d="M567,161.5c-10.5,3.5-20,14.1-22.2,24.8-4.3,20.6,16.3,41.2,36.9,36.9,15.5-3.2,27.5-19,26-33.9-1.1-10.5-9-21.3-19-26.2C582.6,160.2,573.2,159.5,567,161.5Z" transform="translate(-32.23 -32.18)"/><path class="cls-1" d="M695,161.5c-10.5,3.5-20,14.1-22.2,24.8-4.3,20.6,16.3,41.2,36.9,36.9,15.5-3.2,27.5-19,26-33.9-1.1-10.5-9-21.3-19-26.2C710.6,160.2,701.2,159.5,695,161.5Z" transform="translate(-32.23 -32.18)"/><path class="cls-1" d="M823,161.5c-10.5,3.5-20,14.1-22.2,24.8-4.3,20.6,16.3,41.2,36.9,36.9,15.5-3.2,27.5-19,26-33.9-1.1-10.5-9-21.3-19-26.2C838.6,160.2,829.2,159.5,823,161.5Z" transform="translate(-32.23 -32.18)"/><path class="cls-1" d="M951,161.5c-10.5,3.5-20,14.1-22.2,24.8-4.3,20.6,16.3,41.2,36.9,36.9,15.5-3.2,27.5-19,26-33.9-1.1-10.5-9-21.3-19-26.2C966.6,160.2,957.2,159.5,951,161.5Z" transform="translate(-32.23 -32.18)"/><path class="cls-1" d="M1079,161.5c-10.5,3.5-20,14.1-22.2,24.8-2.5,11.7,3.2,24.4,14.2,31.9,10.7,7.4,22.9,7.5,33.7.3,17.7-11.8,20.1-33.8,5.3-48.5C1101.5,161.4,1089.3,158.1,1079,161.5Z" transform="translate(-32.23 -32.18)"/><path class="cls-1" d="M1207,161.5c-10.5,3.5-20,14.1-22.2,24.8-2.5,11.7,3.2,24.4,14.2,31.9,10.7,7.4,22.9,7.5,33.7.3,17.7-11.8,20.1-33.8,5.3-48.5C1229.5,161.4,1217.3,158.1,1207,161.5Z" transform="translate(-32.23 -32.18)"/><path class="cls-1" d="M55,289.5c-10.5,3.5-20,14.1-22.2,24.8-4.3,20.6,16.3,41.2,36.9,36.9,15.5-3.2,27.5-19,26-33.9-1.1-10.5-9-21.3-19-26.2C70.6,288.2,61.2,287.5,55,289.5Z" transform="translate(-32.23 -32.18)"/><path class="cls-1" d="M183,289.5c-10.5,3.5-20,14.1-22.2,24.8-4.3,20.6,16.3,41.2,36.9,36.9,15.5-3.2,27.5-19,26-33.9-1.1-10.5-9-21.3-19-26.2C198.6,288.2,189.2,287.5,183,289.5Z" transform="translate(-32.23 -32.18)"/><path class="cls-1" d="M311,289.5c-10.5,3.5-20,14.1-22.2,24.8-4.3,20.6,16.3,41.2,36.9,36.9,15.5-3.2,27.5-19,26-33.9-1.1-10.5-9-21.3-19-26.2C326.6,288.2,317.2,287.5,311,289.5Z" transform="translate(-32.23 -32.18)"/><path class="cls-1" d="M439,289.5c-10.5,3.5-20,14.1-22.2,24.8-4.3,20.6,16.3,41.2,36.9,36.9,15.5-3.2,27.5-19,26-33.9-1.1-10.5-9-21.3-19-26.2C454.6,288.2,445.2,287.5,439,289.5Z" transform="translate(-32.23 -32.18)"/><path class="cls-1" d="M567,289.5c-10.5,3.5-20,14.1-22.2,24.8-4.3,20.6,16.3,41.2,36.9,36.9,15.5-3.2,27.5-19,26-33.9-1.1-10.5-9-21.3-19-26.2C582.6,288.2,573.2,287.5,567,289.5Z" transform="translate(-32.23 -32.18)"/><path class="cls-1" d="M695,289.5c-10.5,3.5-20,14.1-22.2,24.8-4.3,20.6,16.3,41.2,36.9,36.9,15.5-3.2,27.5-19,26-33.9-1.1-10.5-9-21.3-19-26.2C710.6,288.2,701.2,287.5,695,289.5Z" transform="translate(-32.23 -32.18)"/><path class="cls-1" d="M823,289.5c-10.5,3.5-20,14.1-22.2,24.8-4.3,20.6,16.3,41.2,36.9,36.9,15.5-3.2,27.5-19,26-33.9-1.1-10.5-9-21.3-19-26.2C838.6,288.2,829.2,287.5,823,289.5Z" transform="translate(-32.23 -32.18)"/><path class="cls-1" d="M951,289.5c-10.5,3.5-20,14.1-22.2,24.8-4.3,20.6,16.3,41.2,36.9,36.9,15.5-3.2,27.5-19,26-33.9-1.1-10.5-9-21.3-19-26.2C966.6,288.2,957.2,287.5,951,289.5Z" transform="translate(-32.23 -32.18)"/><path class="cls-1" d="M1079,289.5c-10.5,3.5-20,14.1-22.2,24.8-4.3,20.6,16.3,41.2,36.9,36.9,15.5-3.2,27.5-19,26-33.9-1.1-10.5-9-21.3-19-26.2C1094.6,288.2,1085.2,287.5,1079,289.5Z" transform="translate(-32.23 -32.18)"/><path class="cls-1" d="M1207,289.5c-10.5,3.5-20,14.1-22.2,24.8-4.3,20.6,16.3,41.2,36.9,36.9,15.5-3.2,27.5-19,26-33.9-1.1-10.5-9-21.3-19-26.2C1222.6,288.2,1213.2,287.5,1207,289.5Z" transform="translate(-32.23 -32.18)"/><path class="cls-1" d="M55,417.5c-10.5,3.5-20,14.1-22.2,24.8-4.3,20.6,16.3,41.2,36.9,36.9,15.5-3.2,27.5-19,26-33.9-1.1-10.5-9-21.3-19-26.2C70.6,416.2,61.2,415.5,55,417.5Z" transform="translate(-32.23 -32.18)"/><path class="cls-1" d="M183,417.5c-10.5,3.5-20,14.1-22.2,24.8-4.3,20.6,16.3,41.2,36.9,36.9,15.5-3.2,27.5-19,26-33.9-1.1-10.5-9-21.3-19-26.2C198.6,416.2,189.2,415.5,183,417.5Z" transform="translate(-32.23 -32.18)"/><path class="cls-1" d="M311,417.5c-10.5,3.5-20,14.1-22.2,24.8-4.3,20.6,16.3,41.2,36.9,36.9,15.5-3.2,27.5-19,26-33.9-1.1-10.5-9-21.3-19-26.2C326.6,416.2,317.2,415.5,311,417.5Z" transform="translate(-32.23 -32.18)"/><path class="cls-1" d="M439,417.5c-10.5,3.5-20,14.1-22.2,24.8-4.3,20.6,16.3,41.2,36.9,36.9,15.5-3.2,27.5-19,26-33.9-1.1-10.5-9-21.3-19-26.2C454.6,416.2,445.2,415.5,439,417.5Z" transform="translate(-32.23 -32.18)"/><path class="cls-1" d="M567,417.5c-10.5,3.5-20,14.1-22.2,24.8-4.3,20.6,16.3,41.2,36.9,36.9,15.5-3.2,27.5-19,26-33.9-1.1-10.5-9-21.3-19-26.2C582.6,416.2,573.2,415.5,567,417.5Z" transform="translate(-32.23 -32.18)"/><path class="cls-1" d="M695,417.5c-10.5,3.5-20,14.1-22.2,24.8-4.3,20.6,16.3,41.2,36.9,36.9,15.5-3.2,27.5-19,26-33.9-1.1-10.5-9-21.3-19-26.2C710.6,416.2,701.2,415.5,695,417.5Z" transform="translate(-32.23 -32.18)"/><path class="cls-1" d="M823,417.5c-10.5,3.5-20,14.1-22.2,24.8-4.3,20.6,16.3,41.2,36.9,36.9,15.5-3.2,27.5-19,26-33.9-1.1-10.5-9-21.3-19-26.2C838.6,416.2,829.2,415.5,823,417.5Z" transform="translate(-32.23 -32.18)"/><path class="cls-1" d="M951,417.5c-10.5,3.5-20,14.1-22.2,24.8-4.3,20.6,16.3,41.2,36.9,36.9,15.5-3.2,27.5-19,26-33.9-1.1-10.5-9-21.3-19-26.2C966.6,416.2,957.2,415.5,951,417.5Z" transform="translate(-32.23 -32.18)"/><path class="cls-1" d="M1079,417.5c-10.5,3.5-20,14.1-22.2,24.8-4.3,20.6,16.3,41.2,36.9,36.9,15.5-3.2,27.5-19,26-33.9-1.1-10.5-9-21.3-19-26.2C1094.6,416.2,1085.2,415.5,1079,417.5Z" transform="translate(-32.23 -32.18)"/><path class="cls-1" d="M1207,417.5c-10.5,3.5-20,14.1-22.2,24.8-4.3,20.6,16.3,41.2,36.9,36.9,15.5-3.2,27.5-19,26-33.9-1.1-10.5-9-21.3-19-26.2C1222.6,416.2,1213.2,415.5,1207,417.5Z" transform="translate(-32.23 -32.18)"/><path class="cls-1" d="M55,545.5c-10.5,3.5-20,14.1-22.2,24.8-4.3,20.6,16.3,41.2,36.9,36.9,15.5-3.2,27.5-19,26-33.9-1.1-10.5-9-21.3-19-26.2C70.6,544.2,61.2,543.5,55,545.5Z" transform="translate(-32.23 -32.18)"/><path class="cls-1" d="M183,545.5c-10.5,3.5-20,14.1-22.2,24.8-4.3,20.6,16.3,41.2,36.9,36.9,15.5-3.2,27.5-19,26-33.9-1.1-10.5-9-21.3-19-26.2C198.6,544.2,189.2,543.5,183,545.5Z" transform="translate(-32.23 -32.18)"/><path class="cls-1" d="M311,545.5c-10.5,3.5-20,14.1-22.2,24.8-4.3,20.6,16.3,41.2,36.9,36.9,15.5-3.2,27.5-19,26-33.9-1.1-10.5-9-21.3-19-26.2C326.6,544.2,317.2,543.5,311,545.5Z" transform="translate(-32.23 -32.18)"/><path class="cls-1" d="M439,545.5c-10.5,3.5-20,14.1-22.2,24.8-4.3,20.6,16.3,41.2,36.9,36.9,15.5-3.2,27.5-19,26-33.9-1.1-10.5-9-21.3-19-26.2C454.6,544.2,445.2,543.5,439,545.5Z" transform="translate(-32.23 -32.18)"/><path class="cls-1" d="M567,545.5c-10.5,3.5-20,14.1-22.2,24.8-4.3,20.6,16.3,41.2,36.9,36.9,15.5-3.2,27.5-19,26-33.9-1.1-10.5-9-21.3-19-26.2C582.6,544.2,573.2,543.5,567,545.5Z" transform="translate(-32.23 -32.18)"/><path class="cls-1" d="M695,545.5c-10.5,3.5-20,14.1-22.2,24.8-4.3,20.6,16.3,41.2,36.9,36.9,15.5-3.2,27.5-19,26-33.9-1.1-10.5-9-21.3-19-26.2C710.6,544.2,701.2,543.5,695,545.5Z" transform="translate(-32.23 -32.18)"/><path class="cls-1" d="M823,545.5c-10.5,3.5-20,14.1-22.2,24.8-4.3,20.6,16.3,41.2,36.9,36.9,15.5-3.2,27.5-19,26-33.9-1.1-10.5-9-21.3-19-26.2C838.6,544.2,829.2,543.5,823,545.5Z" transform="translate(-32.23 -32.18)"/><path class="cls-1" d="M951,545.5c-10.5,3.5-20,14.1-22.2,24.8-4.3,20.6,16.3,41.2,36.9,36.9,15.5-3.2,27.5-19,26-33.9-1.1-10.5-9-21.3-19-26.2C966.6,544.2,957.2,543.5,951,545.5Z" transform="translate(-32.23 -32.18)"/><path class="cls-1" d="M1079,545.5c-10.5,3.5-20,14.1-22.2,24.8-4.3,20.6,16.3,41.2,36.9,36.9,15.5-3.2,27.5-19,26-33.9-1.1-10.5-9-21.3-19-26.2C1094.6,544.2,1085.2,543.5,1079,545.5Z" transform="translate(-32.23 -32.18)"/><path class="cls-1" d="M1207,545.5c-10.5,3.5-20,14.1-22.2,24.8-4.3,20.6,16.3,41.2,36.9,36.9,15.5-3.2,27.5-19,26-33.9-1.1-10.5-9-21.3-19-26.2C1222.6,544.2,1213.2,543.5,1207,545.5Z" transform="translate(-32.23 -32.18)"/><path class="cls-1" d="M55,673.5c-10.5,3.5-20,14.1-22.2,24.8-4.3,20.6,16.3,41.2,36.9,36.9,15.5-3.2,27.5-19,26-33.9-1.1-10.5-9-21.3-19-26.2C70.6,672.2,61.2,671.5,55,673.5Z" transform="translate(-32.23 -32.18)"/><path class="cls-1" d="M183,673.5c-10.5,3.5-20,14.1-22.2,24.8-4.3,20.6,16.3,41.2,36.9,36.9,15.5-3.2,27.5-19,26-33.9-1.1-10.5-9-21.3-19-26.2C198.6,672.2,189.2,671.5,183,673.5Z" transform="translate(-32.23 -32.18)"/><path class="cls-1" d="M311,673.5c-10.5,3.5-20,14.1-22.2,24.8-4.3,20.6,16.3,41.2,36.9,36.9,15.5-3.2,27.5-19,26-33.9-1.1-10.5-9-21.3-19-26.2C326.6,672.2,317.2,671.5,311,673.5Z" transform="translate(-32.23 -32.18)"/><path class="cls-1" d="M439,673.5c-10.5,3.5-20,14.1-22.2,24.8-4.3,20.6,16.3,41.2,36.9,36.9,15.5-3.2,27.5-19,26-33.9-1.1-10.5-9-21.3-19-26.2C454.6,672.2,445.2,671.5,439,673.5Z" transform="translate(-32.23 -32.18)"/><path class="cls-1" d="M567,673.5c-10.5,3.5-20,14.1-22.2,24.8-4.3,20.6,16.3,41.2,36.9,36.9,15.5-3.2,27.5-19,26-33.9-1.1-10.5-9-21.3-19-26.2C582.6,672.2,573.2,671.5,567,673.5Z" transform="translate(-32.23 -32.18)"/><path class="cls-1" d="M695,673.5c-10.5,3.5-20,14.1-22.2,24.8-4.3,20.6,16.3,41.2,36.9,36.9,15.5-3.2,27.5-19,26-33.9-1.1-10.5-9-21.3-19-26.2C710.6,672.2,701.2,671.5,695,673.5Z" transform="translate(-32.23 -32.18)"/><path class="cls-1" d="M823,673.5c-10.5,3.5-20,14.1-22.2,24.8-4.3,20.6,16.3,41.2,36.9,36.9,15.5-3.2,27.5-19,26-33.9-1.1-10.5-9-21.3-19-26.2C838.6,672.2,829.2,671.5,823,673.5Z" transform="translate(-32.23 -32.18)"/><path class="cls-1" d="M951,673.5c-10.5,3.5-20,14.1-22.2,24.8-4.3,20.6,16.3,41.2,36.9,36.9,15.5-3.2,27.5-19,26-33.9-1.1-10.5-9-21.3-19-26.2C966.6,672.2,957.2,671.5,951,673.5Z" transform="translate(-32.23 -32.18)"/><path class="cls-1" d="M1079,673.5c-10.5,3.5-20,14.1-22.2,24.8-4.3,20.6,16.3,41.2,36.9,36.9,15.5-3.2,27.5-19,26-33.9-1.1-10.5-9-21.3-19-26.2C1094.6,672.2,1085.2,671.5,1079,673.5Z" transform="translate(-32.23 -32.18)"/><path class="cls-1" d="M1207,673.5c-10.5,3.5-20,14.1-22.2,24.8-4.3,20.6,16.3,41.2,36.9,36.9,15.5-3.2,27.5-19,26-33.9-1.1-10.5-9-21.3-19-26.2C1222.6,672.2,1213.2,671.5,1207,673.5Z" transform="translate(-32.23 -32.18)"/><path class="cls-1" d="M55,801.5c-10.5,3.5-20,14.1-22.2,24.8-4.3,20.6,16.3,41.2,36.9,36.9,15.5-3.2,27.5-19,26-33.9-1.1-10.5-9-21.3-19-26.2C70.6,800.2,61.2,799.5,55,801.5Z" transform="translate(-32.23 -32.18)"/><path class="cls-1" d="M183,801.5c-10.5,3.5-20,14.1-22.2,24.8-4.3,20.6,16.3,41.2,36.9,36.9,15.5-3.2,27.5-19,26-33.9-1.1-10.5-9-21.3-19-26.2C198.6,800.2,189.2,799.5,183,801.5Z" transform="translate(-32.23 -32.18)"/><path class="cls-1" d="M311,801.5c-10.5,3.5-20,14.1-22.2,24.8-2.5,11.7,3.2,24.4,14.2,31.9,10.7,7.4,22.9,7.5,33.7.3,17.7-11.8,20.1-33.8,5.3-48.5C333.5,801.4,321.3,798.1,311,801.5Z" transform="translate(-32.23 -32.18)"/><path class="cls-1" d="M439,801.5c-10.5,3.5-20,14.1-22.2,24.8-2.5,11.7,3.2,24.4,14.2,31.9,10.7,7.4,22.9,7.5,33.7.3,17.7-11.8,20.1-33.8,5.3-48.5C461.5,801.4,449.3,798.1,439,801.5Z" transform="translate(-32.23 -32.18)"/><path class="cls-1" d="M567,801.5c-15.1,5-25.3,21.6-22.2,36.2,2.5,11.9,13.6,23,25.5,25.5,19.3,4.1,39.4-14.2,37.4-33.9-1.1-10.5-9-21.3-19-26.2C582.6,800.2,573.2,799.5,567,801.5Z" transform="translate(-32.23 -32.18)"/><path class="cls-1" d="M695,801.5c-15.1,5-25.3,21.6-22.2,36.2,2.5,11.9,13.6,23,25.5,25.5,19.3,4.1,39.4-14.2,37.4-33.9-1.1-10.5-9-21.3-19-26.2C710.6,800.2,701.2,799.5,695,801.5Z" transform="translate(-32.23 -32.18)"/><path class="cls-1" d="M823,801.5c-15.1,5-25.3,21.6-22.2,36.2,2.5,11.9,13.6,23,25.5,25.5,19.3,4.1,39.4-14.2,37.4-33.9-1.1-10.5-9-21.3-19-26.2C838.6,800.2,829.2,799.5,823,801.5Z" transform="translate(-32.23 -32.18)"/><path class="cls-1" d="M951,801.5c-15.1,5-25.3,21.6-22.2,36.2,2.5,11.9,13.6,23,25.5,25.5,19.3,4.1,39.4-14.2,37.4-33.9-1.1-10.5-9-21.3-19-26.2C966.6,800.2,957.2,799.5,951,801.5Z" transform="translate(-32.23 -32.18)"/><path class="cls-1" d="M1079,801.5c-10.5,3.5-20,14.1-22.2,24.8-4.3,20.6,16.3,41.2,36.9,36.9,15.5-3.2,27.5-19,26-33.9-1.1-10.5-9-21.3-19-26.2C1094.6,800.2,1085.2,799.5,1079,801.5Z" transform="translate(-32.23 -32.18)"/><path class="cls-1" d="M1207,801.5c-10.5,3.5-20,14.1-22.2,24.8-4.3,20.6,16.3,41.2,36.9,36.9,15.5-3.2,27.5-19,26-33.9-1.1-10.5-9-21.3-19-26.2C1222.6,800.2,1213.2,799.5,1207,801.5Z" transform="translate(-32.23 -32.18)"/><path class="cls-1" d="M55,929.5c-10.5,3.5-20,14.1-22.2,24.8-4.3,20.6,16.3,41.2,36.9,36.9,15.5-3.2,27.5-19,26-33.9-1.1-10.5-9-21.3-19-26.2C70.6,928.2,61.2,927.5,55,929.5Z" transform="translate(-32.23 -32.18)"/><path class="cls-1" d="M183,929.5c-10.5,3.5-20,14.1-22.2,24.8-4.3,20.6,16.3,41.2,36.9,36.9,15.5-3.2,27.5-19,26-33.9-1.1-10.5-9-21.3-19-26.2C198.6,928.2,189.2,927.5,183,929.5Z" transform="translate(-32.23 -32.18)"/><path class="cls-1" d="M311,929.5c-10.5,3.5-20,14.1-22.2,24.8-2.5,11.7,3.2,24.4,14.2,31.9,10.7,7.4,22.9,7.5,33.7.3,17.7-11.8,20.1-33.8,5.3-48.5C333.5,929.4,321.3,926.1,311,929.5Z" transform="translate(-32.23 -32.18)"/><path class="cls-1" d="M439,929.5c-10.5,3.5-20,14.1-22.2,24.8-2.5,11.7,3.2,24.4,14.2,31.9,10.7,7.4,22.9,7.5,33.7.3,17.7-11.8,20.1-33.8,5.3-48.5C461.5,929.4,449.3,926.1,439,929.5Z" transform="translate(-32.23 -32.18)"/><path class="cls-1" d="M567,929.5c-15.1,5-25.3,21.6-22.2,36.2,2.5,11.9,13.6,23,25.5,25.5,19.3,4.1,39.4-14.2,37.4-33.9-1.1-10.5-9-21.3-19-26.2C582.6,928.2,573.2,927.5,567,929.5Z" transform="translate(-32.23 -32.18)"/><path class="cls-1" d="M695,929.5c-15.1,5-25.3,21.6-22.2,36.2,2.5,11.9,13.6,23,25.5,25.5,19.3,4.1,39.4-14.2,37.4-33.9-1.1-10.5-9-21.3-19-26.2C710.6,928.2,701.2,927.5,695,929.5Z" transform="translate(-32.23 -32.18)"/><path class="cls-1" d="M823,929.5c-15.1,5-25.3,21.6-22.2,36.2,2.5,11.9,13.6,23,25.5,25.5,19.3,4.1,39.4-14.2,37.4-33.9-1.1-10.5-9-21.3-19-26.2C838.6,928.2,829.2,927.5,823,929.5Z" transform="translate(-32.23 -32.18)"/><path class="cls-1" d="M951,929.5c-15.1,5-25.3,21.6-22.2,36.2,2.5,11.9,13.6,23,25.5,25.5,19.3,4.1,39.4-14.2,37.4-33.9-1.1-10.5-9-21.3-19-26.2C966.6,928.2,957.2,927.5,951,929.5Z" transform="translate(-32.23 -32.18)"/><path class="cls-1" d="M1079,929.5c-10.5,3.5-20,14.1-22.2,24.8-4.3,20.6,16.3,41.2,36.9,36.9,15.5-3.2,27.5-19,26-33.9-1.1-10.5-9-21.3-19-26.2C1094.6,928.2,1085.2,927.5,1079,929.5Z" transform="translate(-32.23 -32.18)"/><path class="cls-1" d="M1207,929.5c-10.5,3.5-20,14.1-22.2,24.8-4.3,20.6,16.3,41.2,36.9,36.9,15.5-3.2,27.5-19,26-33.9-1.1-10.5-9-21.3-19-26.2C1222.6,928.2,1213.2,927.5,1207,929.5Z" transform="translate(-32.23 -32.18)"/><path class="cls-1" d="M55,1057.5c-10.5,3.5-20,14.1-22.2,24.8-4.3,20.6,16.3,41.2,36.9,36.9,15.5-3.2,27.5-19,26-33.9-1.1-10.5-9-21.3-19-26.2C70.6,1056.2,61.2,1055.5,55,1057.5Z" transform="translate(-32.23 -32.18)"/><path class="cls-1" d="M183,1057.5c-10.5,3.5-20,14.1-22.2,24.8-4.3,20.6,16.3,41.2,36.9,36.9,15.5-3.2,27.5-19,26-33.9-1.1-10.5-9-21.3-19-26.2C198.6,1056.2,189.2,1055.5,183,1057.5Z" transform="translate(-32.23 -32.18)"/><path class="cls-1" d="M311,1057.5c-10.5,3.5-20,14.1-22.2,24.8-2.5,11.7,3.2,24.4,14.2,31.9,10.7,7.4,22.9,7.5,33.7.3,17.7-11.8,20.1-33.8,5.3-48.5C333.5,1057.4,321.3,1054.1,311,1057.5Z" transform="translate(-32.23 -32.18)"/><path class="cls-1" d="M439,1057.5c-10.5,3.5-20,14.1-22.2,24.8-2.5,11.7,3.2,24.4,14.2,31.9,10.7,7.4,22.9,7.5,33.7.3,17.7-11.8,20.1-33.8,5.3-48.5C461.5,1057.4,449.3,1054.1,439,1057.5Z" transform="translate(-32.23 -32.18)"/><path class="cls-1" d="M567,1057.5c-10.5,3.5-20,14.1-22.2,24.8-4.3,20.6,16.3,41.2,36.9,36.9,15.5-3.2,27.5-19,26-33.9-1.1-10.5-9-21.3-19-26.2C582.6,1056.2,573.2,1055.5,567,1057.5Z" transform="translate(-32.23 -32.18)"/><path class="cls-1" d="M695,1057.5c-10.5,3.5-20,14.1-22.2,24.8-4.3,20.6,16.3,41.2,36.9,36.9,15.5-3.2,27.5-19,26-33.9-1.1-10.5-9-21.3-19-26.2C710.6,1056.2,701.2,1055.5,695,1057.5Z" transform="translate(-32.23 -32.18)"/><path class="cls-1" d="M823,1057.5c-10.5,3.5-20,14.1-22.2,24.8-4.3,20.6,16.3,41.2,36.9,36.9,15.5-3.2,27.5-19,26-33.9-1.1-10.5-9-21.3-19-26.2C838.6,1056.2,829.2,1055.5,823,1057.5Z" transform="translate(-32.23 -32.18)"/><path class="cls-1" d="M951,1057.5c-10.5,3.5-20,14.1-22.2,24.8-4.3,20.6,16.3,41.2,36.9,36.9,15.5-3.2,27.5-19,26-33.9-1.1-10.5-9-21.3-19-26.2C966.6,1056.2,957.2,1055.5,951,1057.5Z" transform="translate(-32.23 -32.18)"/><path class="cls-1" d="M1079,1057.5c-10.5,3.5-20,14.1-22.2,24.8-4.3,20.6,16.3,41.2,36.9,36.9,15.5-3.2,27.5-19,26-33.9-1.1-10.5-9-21.3-19-26.2C1094.6,1056.2,1085.2,1055.5,1079,1057.5Z" transform="translate(-32.23 -32.18)"/><path class="cls-1" d="M1207,1057.5c-10.5,3.5-20,14.1-22.2,24.8-4.3,20.6,16.3,41.2,36.9,36.9,15.5-3.2,27.5-19,26-33.9-1.1-10.5-9-21.3-19-26.2C1222.6,1056.2,1213.2,1055.5,1207,1057.5Z" transform="translate(-32.23 -32.18)"/><path class="cls-1" d="M55,1185.5c-10.5,3.5-20,14.1-22.2,24.8-4.3,20.6,16.3,41.2,36.9,36.9,15.5-3.2,27.5-19,26-33.9-1.1-10.5-9-21.3-19-26.2C70.6,1184.2,61.2,1183.5,55,1185.5Z" transform="translate(-32.23 -32.18)"/><path class="cls-1" d="M183,1185.5c-10.5,3.5-20,14.1-22.2,24.8-4.3,20.6,16.3,41.2,36.9,36.9,15.5-3.2,27.5-19,26-33.9-1.1-10.5-9-21.3-19-26.2C198.6,1184.2,189.2,1183.5,183,1185.5Z" transform="translate(-32.23 -32.18)"/><path class="cls-1" d="M311,1185.5c-10.5,3.5-20,14.1-22.2,24.8-4.3,20.6,16.3,41.2,36.9,36.9,15.5-3.2,27.5-19,26-33.9-1.1-10.5-9-21.3-19-26.2C326.6,1184.2,317.2,1183.5,311,1185.5Z" transform="translate(-32.23 -32.18)"/><path class="cls-1" d="M439,1185.5c-10.5,3.5-20,14.1-22.2,24.8-4.3,20.6,16.3,41.2,36.9,36.9,15.5-3.2,27.5-19,26-33.9-1.1-10.5-9-21.3-19-26.2C454.6,1184.2,445.2,1183.5,439,1185.5Z" transform="translate(-32.23 -32.18)"/><path class="cls-1" d="M567,1185.5c-10.5,3.5-20,14.1-22.2,24.8-4.3,20.6,16.3,41.2,36.9,36.9,15.5-3.2,27.5-19,26-33.9-1.1-10.5-9-21.3-19-26.2C582.6,1184.2,573.2,1183.5,567,1185.5Z" transform="translate(-32.23 -32.18)"/><path class="cls-1" d="M695,1185.5c-10.5,3.5-20,14.1-22.2,24.8-4.3,20.6,16.3,41.2,36.9,36.9,15.5-3.2,27.5-19,26-33.9-1.1-10.5-9-21.3-19-26.2C710.6,1184.2,701.2,1183.5,695,1185.5Z" transform="translate(-32.23 -32.18)"/><path class="cls-1" d="M823,1185.5c-10.5,3.5-20,14.1-22.2,24.8-4.3,20.6,16.3,41.2,36.9,36.9,15.5-3.2,27.5-19,26-33.9-1.1-10.5-9-21.3-19-26.2C838.6,1184.2,829.2,1183.5,823,1185.5Z" transform="translate(-32.23 -32.18)"/><path class="cls-1" d="M951,1185.5c-10.5,3.5-20,14.1-22.2,24.8-4.3,20.6,16.3,41.2,36.9,36.9,15.5-3.2,27.5-19,26-33.9-1.1-10.5-9-21.3-19-26.2C966.6,1184.2,957.2,1183.5,951,1185.5Z" transform="translate(-32.23 -32.18)"/><path class="cls-1" d="M1079,1185.5c-10.5,3.5-20,14.1-22.2,24.8-4.3,20.6,16.3,41.2,36.9,36.9,15.5-3.2,27.5-19,26-33.9-1.1-10.5-9-21.3-19-26.2C1094.6,1184.2,1085.2,1183.5,1079,1185.5Z" transform="translate(-32.23 -32.18)"/><path class="cls-1" d="M1207,1185.5c-10.5,3.5-20,14.1-22.2,24.8-4.3,20.6,16.3,41.2,36.9,36.9,15.5-3.2,27.5-19,26-33.9-1.1-10.5-9-21.3-19-26.2C1222.6,1184.2,1213.2,1183.5,1207,1185.5Z" transform="translate(-32.23 -32.18)"/><path class="cls-1" d="M1332,33.52c-10.5,3.5-20,14.1-22.2,24.8-4.3,20.6,16.3,41.2,36.9,36.9,15.5-3.2,27.5-19,26-33.9-1.1-10.5-9-21.3-19-26.2C1347.59,32.22,1338.19,31.52,1332,33.52Z" transform="translate(-32.23 -32.18)"/><path class="cls-1" d="M1460,33.52c-15.1,5-25.3,21.6-22.2,36.2,2.5,11.9,13.6,23,25.4,25.5,19.4,4.1,39.5-14.2,37.5-33.9-1.1-10.5-9-21.3-19-26.2C1475.59,32.22,1466.19,31.52,1460,33.52Z" transform="translate(-32.23 -32.18)"/><path class="cls-1" d="M1588,33.52c-10.5,3.5-20,14.1-22.2,24.8-4.3,20.6,16.3,41.2,36.9,36.9,15.5-3.2,27.5-19,26-33.9-1.1-10.5-9-21.3-19-26.2C1603.59,32.22,1594.19,31.52,1588,33.52Z" transform="translate(-32.23 -32.18)"/><path class="cls-1" d="M1716,33.52c-10.5,3.5-20,14.1-22.2,24.8-4.3,20.6,16.3,41.2,36.9,36.9,15.5-3.2,27.5-19,26-33.9-1.1-10.5-9-21.3-19-26.2C1731.59,32.22,1722.19,31.52,1716,33.52Z" transform="translate(-32.23 -32.18)"/><path class="cls-1" d="M1844,33.52c-10.5,3.5-20,14.1-22.2,24.8-4.3,20.6,16.3,41.2,36.9,36.9,15.5-3.2,27.5-19,26-33.9-1.1-10.5-9-21.3-19-26.2C1859.59,32.22,1850.19,31.52,1844,33.52Z" transform="translate(-32.23 -32.18)"/><path class="cls-1" d="M1972,33.52c-10.5,3.5-20,14.1-22.2,24.8-4.3,20.6,16.3,41.2,36.9,36.9,15.5-3.2,27.5-19,26-33.9-1.1-10.5-9-21.3-19-26.2C1987.59,32.22,1978.19,31.52,1972,33.52Z" transform="translate(-32.23 -32.18)"/><path class="cls-1" d="M2100,33.52c-10.5,3.5-20,14.1-22.2,24.8-4.3,20.6,16.3,41.2,36.9,36.9,15.5-3.2,27.5-19,26-33.9-1.1-10.5-9-21.3-19-26.2C2115.59,32.22,2106.19,31.52,2100,33.52Z" transform="translate(-32.23 -32.18)"/><path class="cls-1" d="M2228,33.52c-10.5,3.5-20,14.1-22.2,24.8-4.3,20.6,16.3,41.2,36.9,36.9,15.5-3.2,27.5-19,26-33.9-1.1-10.5-9-21.3-19-26.2C2243.59,32.22,2234.19,31.52,2228,33.52Z" transform="translate(-32.23 -32.18)"/><path class="cls-1" d="M2356,33.52c-10.5,3.5-20,14.1-22.2,24.8-2.5,11.7,3.2,24.4,14.2,31.9,10.7,7.4,22.9,7.5,33.7.3,17.7-11.8,20.1-33.8,5.3-48.5C2378.49,33.42,2366.29,30.12,2356,33.52Z" transform="translate(-32.23 -32.18)"/><path class="cls-1" d="M2484,33.52c-10.5,3.5-20,14.1-22.2,24.8-2.5,11.7,3.2,24.4,14.2,31.9,10.7,7.4,22.9,7.5,33.7.3,17.7-11.8,20.1-33.8,5.3-48.5C2506.49,33.42,2494.29,30.12,2484,33.52Z" transform="translate(-32.23 -32.18)"/><path class="cls-1" d="M1332,161.52c-10.5,3.5-20,14.1-22.2,24.8-4.3,20.6,16.3,41.2,36.9,36.9,15.5-3.2,27.5-19,26-33.9-1.1-10.5-9-21.3-19-26.2C1347.59,160.22,1338.19,159.52,1332,161.52Z" transform="translate(-32.23 -32.18)"/><path class="cls-1" d="M1460,161.52c-15.1,5-25.3,21.6-22.2,36.2,2.5,11.9,13.6,23,25.4,25.5,19.4,4.1,39.5-14.2,37.5-33.9-1.1-10.5-9-21.3-19-26.2C1475.59,160.22,1466.19,159.52,1460,161.52Z" transform="translate(-32.23 -32.18)"/><path class="cls-1" d="M1588,161.52c-10.5,3.5-20,14.1-22.2,24.8-4.3,20.6,16.3,41.2,36.9,36.9,15.5-3.2,27.5-19,26-33.9-1.1-10.5-9-21.3-19-26.2C1603.59,160.22,1594.19,159.52,1588,161.52Z" transform="translate(-32.23 -32.18)"/><path class="cls-1" d="M1716,161.52c-10.5,3.5-20,14.1-22.2,24.8-4.3,20.6,16.3,41.2,36.9,36.9,15.5-3.2,27.5-19,26-33.9-1.1-10.5-9-21.3-19-26.2C1731.59,160.22,1722.19,159.52,1716,161.52Z" transform="translate(-32.23 -32.18)"/><path class="cls-1" d="M1844,161.52c-10.5,3.5-20,14.1-22.2,24.8-4.3,20.6,16.3,41.2,36.9,36.9,15.5-3.2,27.5-19,26-33.9-1.1-10.5-9-21.3-19-26.2C1859.59,160.22,1850.19,159.52,1844,161.52Z" transform="translate(-32.23 -32.18)"/><path class="cls-1" d="M1972,161.52c-10.5,3.5-20,14.1-22.2,24.8-4.3,20.6,16.3,41.2,36.9,36.9,15.5-3.2,27.5-19,26-33.9-1.1-10.5-9-21.3-19-26.2C1987.59,160.22,1978.19,159.52,1972,161.52Z" transform="translate(-32.23 -32.18)"/><path class="cls-1" d="M2100,161.52c-10.5,3.5-20,14.1-22.2,24.8-4.3,20.6,16.3,41.2,36.9,36.9,15.5-3.2,27.5-19,26-33.9-1.1-10.5-9-21.3-19-26.2C2115.59,160.22,2106.19,159.52,2100,161.52Z" transform="translate(-32.23 -32.18)"/><path class="cls-1" d="M2228,161.52c-10.5,3.5-20,14.1-22.2,24.8-4.3,20.6,16.3,41.2,36.9,36.9,15.5-3.2,27.5-19,26-33.9-1.1-10.5-9-21.3-19-26.2C2243.59,160.22,2234.19,159.52,2228,161.52Z" transform="translate(-32.23 -32.18)"/><path class="cls-1" d="M2356,161.52c-10.5,3.5-20,14.1-22.2,24.8-2.5,11.7,3.2,24.4,14.2,31.9,10.7,7.4,22.9,7.5,33.7.3,17.7-11.8,20.1-33.8,5.3-48.5C2378.49,161.42,2366.29,158.12,2356,161.52Z" transform="translate(-32.23 -32.18)"/><path class="cls-1" d="M2484,161.52c-10.5,3.5-20,14.1-22.2,24.8-2.5,11.7,3.2,24.4,14.2,31.9,10.7,7.4,22.9,7.5,33.7.3,17.7-11.8,20.1-33.8,5.3-48.5C2506.49,161.42,2494.29,158.12,2484,161.52Z" transform="translate(-32.23 -32.18)"/><path class="cls-1" d="M1332,289.52c-10.5,3.5-20,14.1-22.2,24.8-4.3,20.6,16.3,41.2,36.9,36.9,15.5-3.2,27.5-19,26-33.9-1.1-10.5-9-21.3-19-26.2C1347.59,288.22,1338.19,287.52,1332,289.52Z" transform="translate(-32.23 -32.18)"/><path class="cls-1" d="M1460,289.52c-10.5,3.5-20,14.1-22.2,24.8-4.3,20.6,16.3,41.2,36.9,36.9,15.5-3.2,27.5-19,26-33.9-1.1-10.5-9-21.3-19-26.2C1475.59,288.22,1466.19,287.52,1460,289.52Z" transform="translate(-32.23 -32.18)"/><path class="cls-1" d="M1588,289.52c-10.5,3.5-20,14.1-22.2,24.8-4.3,20.6,16.3,41.2,36.9,36.9,15.5-3.2,27.5-19,26-33.9-1.1-10.5-9-21.3-19-26.2C1603.59,288.22,1594.19,287.52,1588,289.52Z" transform="translate(-32.23 -32.18)"/><path class="cls-1" d="M1716,289.52c-10.5,3.5-20,14.1-22.2,24.8-4.3,20.6,16.3,41.2,36.9,36.9,15.5-3.2,27.5-19,26-33.9-1.1-10.5-9-21.3-19-26.2C1731.59,288.22,1722.19,287.52,1716,289.52Z" transform="translate(-32.23 -32.18)"/><path class="cls-1" d="M1844,289.52c-10.5,3.5-20,14.1-22.2,24.8-4.3,20.6,16.3,41.2,36.9,36.9,15.5-3.2,27.5-19,26-33.9-1.1-10.5-9-21.3-19-26.2C1859.59,288.22,1850.19,287.52,1844,289.52Z" transform="translate(-32.23 -32.18)"/><path class="cls-1" d="M1972,289.52c-10.5,3.5-20,14.1-22.2,24.8-4.3,20.6,16.3,41.2,36.9,36.9,15.5-3.2,27.5-19,26-33.9-1.1-10.5-9-21.3-19-26.2C1987.59,288.22,1978.19,287.52,1972,289.52Z" transform="translate(-32.23 -32.18)"/><path class="cls-1" d="M2100,289.52c-10.5,3.5-20,14.1-22.2,24.8-4.3,20.6,16.3,41.2,36.9,36.9,15.5-3.2,27.5-19,26-33.9-1.1-10.5-9-21.3-19-26.2C2115.59,288.22,2106.19,287.52,2100,289.52Z" transform="translate(-32.23 -32.18)"/><path class="cls-1" d="M2228,289.52c-10.5,3.5-20,14.1-22.2,24.8-4.3,20.6,16.3,41.2,36.9,36.9,15.5-3.2,27.5-19,26-33.9-1.1-10.5-9-21.3-19-26.2C2243.59,288.22,2234.19,287.52,2228,289.52Z" transform="translate(-32.23 -32.18)"/><path class="cls-1" d="M2356,289.52c-10.5,3.5-20,14.1-22.2,24.8-4.3,20.6,16.3,41.2,36.9,36.9,15.5-3.2,27.5-19,26-33.9-1.1-10.5-9-21.3-19-26.2C2371.59,288.22,2362.19,287.52,2356,289.52Z" transform="translate(-32.23 -32.18)"/><path class="cls-1" d="M2484,289.52c-10.5,3.5-20,14.1-22.2,24.8-4.3,20.6,16.3,41.2,36.9,36.9,15.5-3.2,27.5-19,26-33.9-1.1-10.5-9-21.3-19-26.2C2499.59,288.22,2490.19,287.52,2484,289.52Z" transform="translate(-32.23 -32.18)"/><path class="cls-1" d="M1332,417.52c-10.5,3.5-20,14.1-22.2,24.8-4.3,20.6,16.3,41.2,36.9,36.9,15.5-3.2,27.5-19,26-33.9-1.1-10.5-9-21.3-19-26.2C1347.59,416.22,1338.19,415.52,1332,417.52Z" transform="translate(-32.23 -32.18)"/><path class="cls-1" d="M1460,417.52c-10.5,3.5-20,14.1-22.2,24.8-4.3,20.6,16.3,41.2,36.9,36.9,15.5-3.2,27.5-19,26-33.9-1.1-10.5-9-21.3-19-26.2C1475.59,416.22,1466.19,415.52,1460,417.52Z" transform="translate(-32.23 -32.18)"/><path class="cls-1" d="M1588,417.52c-10.5,3.5-20,14.1-22.2,24.8-4.3,20.6,16.3,41.2,36.9,36.9,15.5-3.2,27.5-19,26-33.9-1.1-10.5-9-21.3-19-26.2C1603.59,416.22,1594.19,415.52,1588,417.52Z" transform="translate(-32.23 -32.18)"/><path class="cls-1" d="M1716,417.52c-10.5,3.5-20,14.1-22.2,24.8-4.3,20.6,16.3,41.2,36.9,36.9,15.5-3.2,27.5-19,26-33.9-1.1-10.5-9-21.3-19-26.2C1731.59,416.22,1722.19,415.52,1716,417.52Z" transform="translate(-32.23 -32.18)"/><path class="cls-1" d="M1844,417.52c-10.5,3.5-20,14.1-22.2,24.8-4.3,20.6,16.3,41.2,36.9,36.9,15.5-3.2,27.5-19,26-33.9-1.1-10.5-9-21.3-19-26.2C1859.59,416.22,1850.19,415.52,1844,417.52Z" transform="translate(-32.23 -32.18)"/><path class="cls-1" d="M1972,417.52c-10.5,3.5-20,14.1-22.2,24.8-4.3,20.6,16.3,41.2,36.9,36.9,15.5-3.2,27.5-19,26-33.9-1.1-10.5-9-21.3-19-26.2C1987.59,416.22,1978.19,415.52,1972,417.52Z" transform="translate(-32.23 -32.18)"/><path class="cls-1" d="M2100,417.52c-10.5,3.5-20,14.1-22.2,24.8-4.3,20.6,16.3,41.2,36.9,36.9,15.5-3.2,27.5-19,26-33.9-1.1-10.5-9-21.3-19-26.2C2115.59,416.22,2106.19,415.52,2100,417.52Z" transform="translate(-32.23 -32.18)"/><path class="cls-1" d="M2228,417.52c-10.5,3.5-20,14.1-22.2,24.8-4.3,20.6,16.3,41.2,36.9,36.9,15.5-3.2,27.5-19,26-33.9-1.1-10.5-9-21.3-19-26.2C2243.59,416.22,2234.19,415.52,2228,417.52Z" transform="translate(-32.23 -32.18)"/><path class="cls-1" d="M2356,417.52c-10.5,3.5-20,14.1-22.2,24.8-4.3,20.6,16.3,41.2,36.9,36.9,15.5-3.2,27.5-19,26-33.9-1.1-10.5-9-21.3-19-26.2C2371.59,416.22,2362.19,415.52,2356,417.52Z" transform="translate(-32.23 -32.18)"/><path class="cls-1" d="M2484,417.52c-10.5,3.5-20,14.1-22.2,24.8-4.3,20.6,16.3,41.2,36.9,36.9,15.5-3.2,27.5-19,26-33.9-1.1-10.5-9-21.3-19-26.2C2499.59,416.22,2490.19,415.52,2484,417.52Z" transform="translate(-32.23 -32.18)"/><path class="cls-1" d="M1332,545.52c-10.5,3.5-20,14.1-22.2,24.8-4.3,20.6,16.3,41.2,36.9,36.9,15.5-3.2,27.5-19,26-33.9-1.1-10.5-9-21.3-19-26.2C1347.59,544.22,1338.19,543.52,1332,545.52Z" transform="translate(-32.23 -32.18)"/><path class="cls-1" d="M1460,545.52c-10.5,3.5-20,14.1-22.2,24.8-4.3,20.6,16.3,41.2,36.9,36.9,15.5-3.2,27.5-19,26-33.9-1.1-10.5-9-21.3-19-26.2C1475.59,544.22,1466.19,543.52,1460,545.52Z" transform="translate(-32.23 -32.18)"/><path class="cls-1" d="M1588,545.52c-10.5,3.5-20,14.1-22.2,24.8-4.3,20.6,16.3,41.2,36.9,36.9,15.5-3.2,27.5-19,26-33.9-1.1-10.5-9-21.3-19-26.2C1603.59,544.22,1594.19,543.52,1588,545.52Z" transform="translate(-32.23 -32.18)"/><path class="cls-1" d="M1716,545.52c-10.5,3.5-20,14.1-22.2,24.8-4.3,20.6,16.3,41.2,36.9,36.9,15.5-3.2,27.5-19,26-33.9-1.1-10.5-9-21.3-19-26.2C1731.59,544.22,1722.19,543.52,1716,545.52Z" transform="translate(-32.23 -32.18)"/><path class="cls-1" d="M1844,545.52c-10.5,3.5-20,14.1-22.2,24.8-4.3,20.6,16.3,41.2,36.9,36.9,15.5-3.2,27.5-19,26-33.9-1.1-10.5-9-21.3-19-26.2C1859.59,544.22,1850.19,543.52,1844,545.52Z" transform="translate(-32.23 -32.18)"/><path class="cls-1" d="M1972,545.52c-10.5,3.5-20,14.1-22.2,24.8-4.3,20.6,16.3,41.2,36.9,36.9,15.5-3.2,27.5-19,26-33.9-1.1-10.5-9-21.3-19-26.2C1987.59,544.22,1978.19,543.52,1972,545.52Z" transform="translate(-32.23 -32.18)"/><path class="cls-1" d="M2100,545.52c-10.5,3.5-20,14.1-22.2,24.8-4.3,20.6,16.3,41.2,36.9,36.9,15.5-3.2,27.5-19,26-33.9-1.1-10.5-9-21.3-19-26.2C2115.59,544.22,2106.19,543.52,2100,545.52Z" transform="translate(-32.23 -32.18)"/><path class="cls-1" d="M2228,545.52c-10.5,3.5-20,14.1-22.2,24.8-4.3,20.6,16.3,41.2,36.9,36.9,15.5-3.2,27.5-19,26-33.9-1.1-10.5-9-21.3-19-26.2C2243.59,544.22,2234.19,543.52,2228,545.52Z" transform="translate(-32.23 -32.18)"/><path class="cls-1" d="M2356,545.52c-10.5,3.5-20,14.1-22.2,24.8-4.3,20.6,16.3,41.2,36.9,36.9,15.5-3.2,27.5-19,26-33.9-1.1-10.5-9-21.3-19-26.2C2371.59,544.22,2362.19,543.52,2356,545.52Z" transform="translate(-32.23 -32.18)"/><path class="cls-1" d="M2484,545.52c-10.5,3.5-20,14.1-22.2,24.8-4.3,20.6,16.3,41.2,36.9,36.9,15.5-3.2,27.5-19,26-33.9-1.1-10.5-9-21.3-19-26.2C2499.59,544.22,2490.19,543.52,2484,545.52Z" transform="translate(-32.23 -32.18)"/><path class="cls-1" d="M1332,673.52c-10.5,3.5-20,14.1-22.2,24.8-4.3,20.6,16.3,41.2,36.9,36.9,15.5-3.2,27.5-19,26-33.9-1.1-10.5-9-21.3-19-26.2C1347.59,672.22,1338.19,671.52,1332,673.52Z" transform="translate(-32.23 -32.18)"/><path class="cls-1" d="M1460,673.52c-10.5,3.5-20,14.1-22.2,24.8-4.3,20.6,16.3,41.2,36.9,36.9,15.5-3.2,27.5-19,26-33.9-1.1-10.5-9-21.3-19-26.2C1475.59,672.22,1466.19,671.52,1460,673.52Z" transform="translate(-32.23 -32.18)"/><path class="cls-1" d="M1588,673.52c-10.5,3.5-20,14.1-22.2,24.8-4.3,20.6,16.3,41.2,36.9,36.9,15.5-3.2,27.5-19,26-33.9-1.1-10.5-9-21.3-19-26.2C1603.59,672.22,1594.19,671.52,1588,673.52Z" transform="translate(-32.23 -32.18)"/><path class="cls-1" d="M1716,673.52c-10.5,3.5-20,14.1-22.2,24.8-4.3,20.6,16.3,41.2,36.9,36.9,15.5-3.2,27.5-19,26-33.9-1.1-10.5-9-21.3-19-26.2C1731.59,672.22,1722.19,671.52,1716,673.52Z" transform="translate(-32.23 -32.18)"/><path class="cls-1" d="M1844,673.52c-10.5,3.5-20,14.1-22.2,24.8-4.3,20.6,16.3,41.2,36.9,36.9,15.5-3.2,27.5-19,26-33.9-1.1-10.5-9-21.3-19-26.2C1859.59,672.22,1850.19,671.52,1844,673.52Z" transform="translate(-32.23 -32.18)"/><path class="cls-1" d="M1972,673.52c-10.5,3.5-20,14.1-22.2,24.8-4.3,20.6,16.3,41.2,36.9,36.9,15.5-3.2,27.5-19,26-33.9-1.1-10.5-9-21.3-19-26.2C1987.59,672.22,1978.19,671.52,1972,673.52Z" transform="translate(-32.23 -32.18)"/><path class="cls-1" d="M2100,673.52c-10.5,3.5-20,14.1-22.2,24.8-4.3,20.6,16.3,41.2,36.9,36.9,15.5-3.2,27.5-19,26-33.9-1.1-10.5-9-21.3-19-26.2C2115.59,672.22,2106.19,671.52,2100,673.52Z" transform="translate(-32.23 -32.18)"/><path class="cls-1" d="M2228,673.52c-10.5,3.5-20,14.1-22.2,24.8-4.3,20.6,16.3,41.2,36.9,36.9,15.5-3.2,27.5-19,26-33.9-1.1-10.5-9-21.3-19-26.2C2243.59,672.22,2234.19,671.52,2228,673.52Z" transform="translate(-32.23 -32.18)"/><path class="cls-1" d="M2356,673.52c-10.5,3.5-20,14.1-22.2,24.8-4.3,20.6,16.3,41.2,36.9,36.9,15.5-3.2,27.5-19,26-33.9-1.1-10.5-9-21.3-19-26.2C2371.59,672.22,2362.19,671.52,2356,673.52Z" transform="translate(-32.23 -32.18)"/><path class="cls-1" d="M2484,673.52c-10.5,3.5-20,14.1-22.2,24.8-4.3,20.6,16.3,41.2,36.9,36.9,15.5-3.2,27.5-19,26-33.9-1.1-10.5-9-21.3-19-26.2C2499.59,672.22,2490.19,671.52,2484,673.52Z" transform="translate(-32.23 -32.18)"/><path class="cls-1" d="M1332,801.52c-10.5,3.5-20,14.1-22.2,24.8-4.3,20.6,16.3,41.2,36.9,36.9,15.5-3.2,27.5-19,26-33.9-1.1-10.5-9-21.3-19-26.2C1347.59,800.22,1338.19,799.52,1332,801.52Z" transform="translate(-32.23 -32.18)"/><path class="cls-1" d="M1460,801.52c-10.5,3.5-20,14.1-22.2,24.8-4.3,20.6,16.3,41.2,36.9,36.9,15.5-3.2,27.5-19,26-33.9-1.1-10.5-9-21.3-19-26.2C1475.59,800.22,1466.19,799.52,1460,801.52Z" transform="translate(-32.23 -32.18)"/><path class="cls-1" d="M1588,801.52c-10.5,3.5-20,14.1-22.2,24.8-2.5,11.7,3.2,24.4,14.2,31.9,10.7,7.4,22.9,7.5,33.7.3,17.7-11.8,20.1-33.8,5.3-48.5C1610.49,801.42,1598.29,798.12,1588,801.52Z" transform="translate(-32.23 -32.18)"/><path class="cls-1" d="M1716,801.52c-10.5,3.5-20,14.1-22.2,24.8-2.5,11.7,3.2,24.4,14.2,31.9,10.7,7.4,22.9,7.5,33.7.3,17.7-11.8,20.1-33.8,5.3-48.5C1738.49,801.42,1726.29,798.12,1716,801.52Z" transform="translate(-32.23 -32.18)"/><path class="cls-1" d="M1844,801.52c-15.1,5-25.3,21.6-22.2,36.2,2.5,11.9,13.6,23,25.5,25.5,19.3,4.1,39.4-14.2,37.4-33.9-1.1-10.5-9-21.3-19-26.2C1859.59,800.22,1850.19,799.52,1844,801.52Z" transform="translate(-32.23 -32.18)"/><path class="cls-1" d="M1972,801.52c-15.1,5-25.3,21.6-22.2,36.2,2.5,11.9,13.6,23,25.5,25.5,19.3,4.1,39.4-14.2,37.4-33.9-1.1-10.5-9-21.3-19-26.2C1987.59,800.22,1978.19,799.52,1972,801.52Z" transform="translate(-32.23 -32.18)"/><path class="cls-1" d="M2100,801.52c-15.1,5-25.3,21.6-22.2,36.2,2.5,11.9,13.6,23,25.5,25.5,19.3,4.1,39.4-14.2,37.4-33.9-1.1-10.5-9-21.3-19-26.2C2115.59,800.22,2106.19,799.52,2100,801.52Z" transform="translate(-32.23 -32.18)"/><path class="cls-1" d="M2228,801.52c-15.1,5-25.3,21.6-22.2,36.2,2.5,11.9,13.6,23,25.5,25.5,19.3,4.1,39.4-14.2,37.4-33.9-1.1-10.5-9-21.3-19-26.2C2243.59,800.22,2234.19,799.52,2228,801.52Z" transform="translate(-32.23 -32.18)"/><path class="cls-1" d="M2356,801.52c-10.5,3.5-20,14.1-22.2,24.8-4.3,20.6,16.3,41.2,36.9,36.9,15.5-3.2,27.5-19,26-33.9-1.1-10.5-9-21.3-19-26.2C2371.59,800.22,2362.19,799.52,2356,801.52Z" transform="translate(-32.23 -32.18)"/><path class="cls-1" d="M2484,801.52c-10.5,3.5-20,14.1-22.2,24.8-4.3,20.6,16.3,41.2,36.9,36.9,15.5-3.2,27.5-19,26-33.9-1.1-10.5-9-21.3-19-26.2C2499.59,800.22,2490.19,799.52,2484,801.52Z" transform="translate(-32.23 -32.18)"/><path class="cls-1" d="M1332,929.52c-10.5,3.5-20,14.1-22.2,24.8-4.3,20.6,16.3,41.2,36.9,36.9,15.5-3.2,27.5-19,26-33.9-1.1-10.5-9-21.3-19-26.2C1347.59,928.22,1338.19,927.52,1332,929.52Z" transform="translate(-32.23 -32.18)"/><path class="cls-1" d="M1460,929.52c-10.5,3.5-20,14.1-22.2,24.8-4.3,20.6,16.3,41.2,36.9,36.9,15.5-3.2,27.5-19,26-33.9-1.1-10.5-9-21.3-19-26.2C1475.59,928.22,1466.19,927.52,1460,929.52Z" transform="translate(-32.23 -32.18)"/><path class="cls-1" d="M1588,929.52c-10.5,3.5-20,14.1-22.2,24.8-2.5,11.7,3.2,24.4,14.2,31.9,10.7,7.4,22.9,7.5,33.7.3,17.7-11.8,20.1-33.8,5.3-48.5C1610.49,929.42,1598.29,926.12,1588,929.52Z" transform="translate(-32.23 -32.18)"/><path class="cls-1" d="M1716,929.52c-10.5,3.5-20,14.1-22.2,24.8-2.5,11.7,3.2,24.4,14.2,31.9,10.7,7.4,22.9,7.5,33.7.3,17.7-11.8,20.1-33.8,5.3-48.5C1738.49,929.42,1726.29,926.12,1716,929.52Z" transform="translate(-32.23 -32.18)"/><path class="cls-1" d="M1844,929.52c-15.1,5-25.3,21.6-22.2,36.2,2.5,11.9,13.6,23,25.5,25.5,19.3,4.1,39.4-14.2,37.4-33.9-1.1-10.5-9-21.3-19-26.2C1859.59,928.22,1850.19,927.52,1844,929.52Z" transform="translate(-32.23 -32.18)"/><path class="cls-1" d="M1972,929.52c-15.1,5-25.3,21.6-22.2,36.2,2.5,11.9,13.6,23,25.5,25.5,19.3,4.1,39.4-14.2,37.4-33.9-1.1-10.5-9-21.3-19-26.2C1987.59,928.22,1978.19,927.52,1972,929.52Z" transform="translate(-32.23 -32.18)"/><path class="cls-1" d="M2100,929.52c-15.1,5-25.3,21.6-22.2,36.2,2.5,11.9,13.6,23,25.5,25.5,19.3,4.1,39.4-14.2,37.4-33.9-1.1-10.5-9-21.3-19-26.2C2115.59,928.22,2106.19,927.52,2100,929.52Z" transform="translate(-32.23 -32.18)"/><path class="cls-1" d="M2228,929.52c-15.1,5-25.3,21.6-22.2,36.2,2.5,11.9,13.6,23,25.5,25.5,19.3,4.1,39.4-14.2,37.4-33.9-1.1-10.5-9-21.3-19-26.2C2243.59,928.22,2234.19,927.52,2228,929.52Z" transform="translate(-32.23 -32.18)"/><path class="cls-1" d="M2356,929.52c-10.5,3.5-20,14.1-22.2,24.8-4.3,20.6,16.3,41.2,36.9,36.9,15.5-3.2,27.5-19,26-33.9-1.1-10.5-9-21.3-19-26.2C2371.59,928.22,2362.19,927.52,2356,929.52Z" transform="translate(-32.23 -32.18)"/><path class="cls-1" d="M2484,929.52c-10.5,3.5-20,14.1-22.2,24.8-4.3,20.6,16.3,41.2,36.9,36.9,15.5-3.2,27.5-19,26-33.9-1.1-10.5-9-21.3-19-26.2C2499.59,928.22,2490.19,927.52,2484,929.52Z" transform="translate(-32.23 -32.18)"/><path class="cls-1" d="M1332,1057.52c-10.5,3.5-20,14.1-22.2,24.8-4.3,20.6,16.3,41.2,36.9,36.9,15.5-3.2,27.5-19,26-33.9-1.1-10.5-9-21.3-19-26.2C1347.59,1056.22,1338.19,1055.52,1332,1057.52Z" transform="translate(-32.23 -32.18)"/><path class="cls-1" d="M1460,1057.52c-10.5,3.5-20,14.1-22.2,24.8-4.3,20.6,16.3,41.2,36.9,36.9,15.5-3.2,27.5-19,26-33.9-1.1-10.5-9-21.3-19-26.2C1475.59,1056.22,1466.19,1055.52,1460,1057.52Z" transform="translate(-32.23 -32.18)"/><path class="cls-1" d="M1588,1057.52c-10.5,3.5-20,14.1-22.2,24.8-2.5,11.7,3.2,24.4,14.2,31.9,10.7,7.4,22.9,7.5,33.7.3,17.7-11.8,20.1-33.8,5.3-48.5C1610.49,1057.42,1598.29,1054.12,1588,1057.52Z" transform="translate(-32.23 -32.18)"/><path class="cls-1" d="M1716,1057.52c-10.5,3.5-20,14.1-22.2,24.8-2.5,11.7,3.2,24.4,14.2,31.9,10.7,7.4,22.9,7.5,33.7.3,17.7-11.8,20.1-33.8,5.3-48.5C1738.49,1057.42,1726.29,1054.12,1716,1057.52Z" transform="translate(-32.23 -32.18)"/><path class="cls-1" d="M1844,1057.52c-10.5,3.5-20,14.1-22.2,24.8-4.3,20.6,16.3,41.2,36.9,36.9,15.5-3.2,27.5-19,26-33.9-1.1-10.5-9-21.3-19-26.2C1859.59,1056.22,1850.19,1055.52,1844,1057.52Z" transform="translate(-32.23 -32.18)"/><path class="cls-1" d="M1972,1057.52c-10.5,3.5-20,14.1-22.2,24.8-4.3,20.6,16.3,41.2,36.9,36.9,15.5-3.2,27.5-19,26-33.9-1.1-10.5-9-21.3-19-26.2C1987.59,1056.22,1978.19,1055.52,1972,1057.52Z" transform="translate(-32.23 -32.18)"/><path class="cls-1" d="M2100,1057.52c-10.5,3.5-20,14.1-22.2,24.8-4.3,20.6,16.3,41.2,36.9,36.9,15.5-3.2,27.5-19,26-33.9-1.1-10.5-9-21.3-19-26.2C2115.59,1056.22,2106.19,1055.52,2100,1057.52Z" transform="translate(-32.23 -32.18)"/><path class="cls-1" d="M2228,1057.52c-10.5,3.5-20,14.1-22.2,24.8-4.3,20.6,16.3,41.2,36.9,36.9,15.5-3.2,27.5-19,26-33.9-1.1-10.5-9-21.3-19-26.2C2243.59,1056.22,2234.19,1055.52,2228,1057.52Z" transform="translate(-32.23 -32.18)"/><path class="cls-1" d="M2356,1057.52c-10.5,3.5-20,14.1-22.2,24.8-4.3,20.6,16.3,41.2,36.9,36.9,15.5-3.2,27.5-19,26-33.9-1.1-10.5-9-21.3-19-26.2C2371.59,1056.22,2362.19,1055.52,2356,1057.52Z" transform="translate(-32.23 -32.18)"/><path class="cls-1" d="M2484,1057.52c-10.5,3.5-20,14.1-22.2,24.8-4.3,20.6,16.3,41.2,36.9,36.9,15.5-3.2,27.5-19,26-33.9-1.1-10.5-9-21.3-19-26.2C2499.59,1056.22,2490.19,1055.52,2484,1057.52Z" transform="translate(-32.23 -32.18)"/><path class="cls-1" d="M1332,1185.52c-10.5,3.5-20,14.1-22.2,24.8-4.3,20.6,16.3,41.2,36.9,36.9,15.5-3.2,27.5-19,26-33.9-1.1-10.5-9-21.3-19-26.2C1347.59,1184.22,1338.19,1183.52,1332,1185.52Z" transform="translate(-32.23 -32.18)"/><path class="cls-1" d="M1460,1185.52c-10.5,3.5-20,14.1-22.2,24.8-4.3,20.6,16.3,41.2,36.9,36.9,15.5-3.2,27.5-19,26-33.9-1.1-10.5-9-21.3-19-26.2C1475.59,1184.22,1466.19,1183.52,1460,1185.52Z" transform="translate(-32.23 -32.18)"/><path class="cls-1" d="M1588,1185.52c-10.5,3.5-20,14.1-22.2,24.8-4.3,20.6,16.3,41.2,36.9,36.9,15.5-3.2,27.5-19,26-33.9-1.1-10.5-9-21.3-19-26.2C1603.59,1184.22,1594.19,1183.52,1588,1185.52Z" transform="translate(-32.23 -32.18)"/><path class="cls-1" d="M1716,1185.52c-10.5,3.5-20,14.1-22.2,24.8-4.3,20.6,16.3,41.2,36.9,36.9,15.5-3.2,27.5-19,26-33.9-1.1-10.5-9-21.3-19-26.2C1731.59,1184.22,1722.19,1183.52,1716,1185.52Z" transform="translate(-32.23 -32.18)"/><path class="cls-1" d="M1844,1185.52c-10.5,3.5-20,14.1-22.2,24.8-4.3,20.6,16.3,41.2,36.9,36.9,15.5-3.2,27.5-19,26-33.9-1.1-10.5-9-21.3-19-26.2C1859.59,1184.22,1850.19,1183.52,1844,1185.52Z" transform="translate(-32.23 -32.18)"/><path class="cls-1" d="M1972,1185.52c-10.5,3.5-20,14.1-22.2,24.8-4.3,20.6,16.3,41.2,36.9,36.9,15.5-3.2,27.5-19,26-33.9-1.1-10.5-9-21.3-19-26.2C1987.59,1184.22,1978.19,1183.52,1972,1185.52Z" transform="translate(-32.23 -32.18)"/><path class="cls-1" d="M2100,1185.52c-10.5,3.5-20,14.1-22.2,24.8-4.3,20.6,16.3,41.2,36.9,36.9,15.5-3.2,27.5-19,26-33.9-1.1-10.5-9-21.3-19-26.2C2115.59,1184.22,2106.19,1183.52,2100,1185.52Z" transform="translate(-32.23 -32.18)"/><path class="cls-1" d="M2228,1185.52c-10.5,3.5-20,14.1-22.2,24.8-4.3,20.6,16.3,41.2,36.9,36.9,15.5-3.2,27.5-19,26-33.9-1.1-10.5-9-21.3-19-26.2C2243.59,1184.22,2234.19,1183.52,2228,1185.52Z" transform="translate(-32.23 -32.18)"/><path class="cls-1" d="M2356,1185.52c-10.5,3.5-20,14.1-22.2,24.8-4.3,20.6,16.3,41.2,36.9,36.9,15.5-3.2,27.5-19,26-33.9-1.1-10.5-9-21.3-19-26.2C2371.59,1184.22,2362.19,1183.52,2356,1185.52Z" transform="translate(-32.23 -32.18)"/><path class="cls-1" d="M2484,1185.52c-10.5,3.5-20,14.1-22.2,24.8-4.3,20.6,16.3,41.2,36.9,36.9,15.5-3.2,27.5-19,26-33.9-1.1-10.5-9-21.3-19-26.2C2499.59,1184.22,2490.19,1183.52,2484,1185.52Z" transform="translate(-32.23 -32.18)"/></g></svg>